<svg xmlns="http://www.w3.org/2000/svg" width="406" height="100" viewBox="0 0 406 100">
    <g fill="none" fill-rule="evenodd">
        <g>
            <g>
                <path fill="#05C6DD" fill-rule="nonzero" d="M25.436 17.717c-.63-.3-1.323-.442-2.02-.415h-2.852v6.623h2.87c.692.026 1.379-.116 2.002-.416.505-.262.92-.67 1.19-1.17.255-.542.384-1.136.378-1.735.014-.6-.116-1.196-.378-1.736-.266-.499-.682-.901-1.19-1.151z" transform="translate(-1501 -394) translate(1501 394)"/>
                <path fill="#05C6DD" fill-rule="nonzero" d="M45.717 0H1.983C1.449-.027.929.173.55.55.173.928-.027 1.448 0 1.981V45.68c-.027.534.173 1.054.55 1.431.379.378.899.578 1.433.55h43.734c.534.028 1.055-.172 1.433-.55.378-.377.578-.897.55-1.43V1.98c.028-.533-.172-1.053-.55-1.43-.378-.378-.899-.578-1.433-.551zM30.478 24.094c-.575.995-1.428 1.802-2.455 2.321-1.214.597-2.556.888-3.908.85h-3.55v6.433h-4.193v-19.83h7.837c1.31-.028 2.605.264 3.777.849 1.027.537 1.874 1.364 2.436 2.377.58 1.078.873 2.286.85 3.51.05 1.213-.224 2.418-.794 3.49zM76.309 18.415L73.854 25.925 78.915 25.925 76.46 18.415z" transform="translate(-1501 -394) translate(1501 394)"/>
                <path fill="#05C6DD" fill-rule="nonzero" d="M89.414 0h-34.84c-.518 0-1.013.211-1.37.586-.357.374-.544.879-.518 1.395V45.68c-.026.517.161 1.021.518 1.396.357.374.852.586 1.37.585h43.735c.529.005 1.038-.201 1.414-.573.376-.372.587-.879.587-1.408V10.736L89.414 0zm-7.969 33.736l-1.472-4.528h-7.176l-1.473 4.528H66.81l6.836-19.868h5.42l6.854 19.868h-4.476zM45.717 52.49H1.983c-.518 0-1.013.212-1.37.586-.357.375-.544.88-.519 1.396v43.641c0 .517.212 1.012.586 1.369.375.357.88.544 1.397.518h43.64c.517.026 1.022-.161 1.397-.518s.587-.852.586-1.369V54.472c.028-.534-.172-1.054-.55-1.431-.378-.378-.899-.578-1.433-.55zM32.102 69.812h-6.156v16.397h-4.173V69.81h-6.08v-3.396h16.41v3.396zM98.195 52.49H54.517c-.534-.027-1.054.173-1.432.55-.378.378-.578.898-.55 1.432v43.641c-.001.517.21 1.012.586 1.369.374.357.88.544 1.396.518h43.678c1.063.002 1.942-.827 2.002-1.887V54.472c-.01-1.097-.903-1.981-2.002-1.981zM84.788 86.265h-4.136v-8.207h-8.535v8.207H67.98V66.396h4.211v8.189h8.536v-8.189h4.192l-.132 19.868z" transform="translate(-1501 -394) translate(1501 394)"/>
                <path stroke="#3E3C48" d="M148.011 32.34L148.011 67.83" transform="translate(-1501 -394) translate(1501 394)"/>
                <path fill="#3E3C48" fill-rule="nonzero" d="M197.052 45.755V29.566h6.401c1.087-.035 2.166.205 3.135.698.795.438 1.45 1.092 1.888 1.887.918 1.775.918 3.885 0 5.66-.474.813-1.177 1.47-2.02 1.887-.99.493-2.086.733-3.192.698h-4.06v-2.66h3.513c.568.014 1.132-.109 1.643-.359.403-.217.737-.544.963-.943.216-.44.326-.925.32-1.415.01-.49-.1-.977-.32-1.415-.229-.404-.57-.732-.982-.944-.513-.243-1.076-.36-1.643-.34h-2.304v13.397l-3.342.038zM211.498 45.755V29.566h6.382c1.055-.037 2.103.177 3.06.623.84.415 1.537 1.072 2.001 1.886.463.857.698 1.82.68 2.793.03.971-.212 1.932-.699 2.774-.478.781-1.183 1.4-2.02 1.773-.998.442-2.082.654-3.173.623h-4.286v-2.774h3.776c.56.014 1.117-.075 1.643-.264.405-.152.745-.439.963-.811.226-.41.337-.873.321-1.34.011-.473-.1-.94-.32-1.358-.23-.376-.574-.667-.983-.83-.518-.223-1.08-.326-1.642-.303h-2.304v13.397h-3.4zm8.743-7.359l4.022 7.359h-3.777l-3.946-7.359h3.7zM241.013 37.736c.045 1.563-.298 3.112-1 4.51-.62 1.182-1.563 2.164-2.72 2.83-2.422 1.308-5.34 1.308-7.761 0-1.153-.675-2.09-1.663-2.7-2.85-.7-1.391-1.044-2.934-1.002-4.49-.041-1.563.303-3.111 1.001-4.51.617-1.177 1.553-2.158 2.7-2.83 2.422-1.308 5.34-1.308 7.762 0 1.149.677 2.09 1.656 2.72 2.83.698 1.399 1.042 2.947 1 4.51zm-3.475 0c.03-.987-.143-1.97-.51-2.887-.295-.723-.794-1.345-1.435-1.792-1.336-.804-3.007-.804-4.343 0-.646.44-1.146 1.065-1.435 1.792-.367.917-.54 1.9-.51 2.887-.03.987.143 1.97.51 2.887.447 1.078 1.344 1.908 2.455 2.27 1.11.364 2.325.223 3.323-.384.661-.467 1.162-1.125 1.435-1.886.367-.917.54-1.9.51-2.887zM249.265 45.755H243.6V29.566h5.665c1.463-.042 2.912.29 4.211.962 1.168.635 2.117 1.608 2.72 2.793.672 1.339 1.003 2.823.963 4.32.04 1.51-.29 3.007-.964 4.359-.608 1.18-1.555 2.152-2.719 2.792-1.302.665-2.75.996-4.21.963zm-2.323-2.925h2.172c.888.026 1.768-.162 2.568-.547.697-.367 1.25-.959 1.568-1.68.372-.91.558-1.884.547-2.867.03-1.001-.15-1.997-.529-2.925-.318-.72-.87-1.312-1.567-1.679-.793-.385-1.668-.572-2.55-.547h-2.19l-.019 10.245zM269.754 29.566h3.418v10.51c.03 1.096-.258 2.177-.831 3.113-.557.9-1.355 1.625-2.304 2.094-2.245.982-4.798.982-7.043 0-.984-.455-1.816-1.181-2.399-2.094-.565-.94-.853-2.018-.83-3.114V29.566h3.417v10.226c-.004.574.14 1.14.416 1.642.274.475.672.866 1.152 1.132 1.09.564 2.385.564 3.474 0 .475-.266.867-.658 1.133-1.132.285-.5.429-1.067.416-1.642l-.019-10.226zM290.3 35.226h-3.475c-.09-.819-.496-1.57-1.133-2.094-.316-.25-.674-.443-1.058-.566-.421-.133-.861-.196-1.303-.189-.777-.022-1.542.195-2.19.623-.662.466-1.163 1.125-1.435 1.887-.362.912-.535 1.887-.51 2.868-.03.993.143 1.982.51 2.905.296.729.802 1.353 1.454 1.793.645.4 1.393.603 2.152.585.434.004.867-.053 1.285-.17.376-.117.729-.303 1.038-.547.315-.226.578-.515.774-.85.211-.353.352-.744.416-1.15h3.474c-.096.745-.327 1.468-.68 2.132-.35.712-.83 1.351-1.416 1.887-.631.557-1.361.992-2.152 1.283-2.195.775-4.615.59-6.666-.51-1.152-.67-2.083-1.66-2.682-2.849-.705-1.403-1.05-2.959-1-4.528-.048-1.561.29-3.11.981-4.51.625-1.178 1.567-2.158 2.72-2.83 1.15-.652 2.453-.99 3.776-.98.89-.009 1.777.125 2.625.395.773.258 1.495.647 2.134 1.151.632.52 1.152 1.162 1.53 1.887.418.736.7 1.541.83 2.377zM292.131 32.396L292.131 29.566 305.444 29.566 305.444 32.396 300.497 32.396 300.497 45.755 297.098 45.755 297.098 32.396zM311.79 46c-.998.022-1.986-.184-2.89-.604-.775-.354-1.43-.924-1.888-1.641-.44-.687-.669-1.487-.661-2.302-.006-.582.124-1.156.377-1.68.28-.51.644-.969 1.077-1.358.492-.446 1.015-.856 1.567-1.226l3.154-2.076c.345-.21.646-.486.887-.811.187-.28.285-.608.283-.944-.007-.332-.143-.65-.377-.886-.294-.293-.7-.444-1.114-.415-.288-.007-.57.072-.812.226-.226.125-.415.307-.548.528-.13.23-.196.491-.189.755.005.358.102.71.283 1.019.215.395.468.768.756 1.113.32.377.66.811 1.038 1.245l7.686 8.812h-3.512l-6.42-7.132c-.416-.472-.832-.981-1.247-1.51-.422-.506-.778-1.064-1.058-1.66-.274-.592-.415-1.235-.415-1.887-.01-.74.18-1.47.548-2.113.367-.631.903-1.147 1.548-1.49.712-.385 1.514-.573 2.323-.548.782-.025 1.558.157 2.247.528.6.32 1.102.796 1.454 1.378.333.573.509 1.224.51 1.887.01.73-.186 1.45-.567 2.075-.41.656-.95 1.221-1.586 1.66l-3.305 2.378c-.388.274-.726.612-1 1-.197.29-.308.63-.322.98-.008.367.09.727.284 1.039.2.309.48.557.812.717.38.189.802.28 1.227.264.588.001 1.168-.128 1.7-.378.565-.278 1.077-.655 1.51-1.113.473-.504.844-1.093 1.096-1.736.286-.693.427-1.438.415-2.188h2.795c.007.897-.1 1.79-.321 2.66-.199.732-.504 1.432-.907 2.076-.36.551-.806 1.042-1.321 1.452l-.454.283-.472.283c-.591.48-1.272.839-2.001 1.057-.715.192-1.451.287-2.19.283zM205.833 54.981c-.039-.592-.336-1.137-.812-1.49-.56-.368-1.22-.552-1.889-.529-.482-.01-.962.066-1.416.227-.343.14-.648.36-.888.641-.194.277-.3.606-.302.944-.01.264.056.526.19.754.145.227.338.42.566.566.255.162.527.295.812.397.326.116.66.21 1 .283l1.454.358c.65.14 1.283.35 1.889.623.566.24 1.089.572 1.548.98.427.377.768.84 1.001 1.36.248.564.377 1.175.378 1.792.01.911-.253 1.805-.756 2.566-.54.76-1.287 1.35-2.152 1.698-1.083.418-2.239.617-3.4.585-1.162.032-2.318-.173-3.398-.604-.92-.344-1.712-.964-2.266-1.774-.57-.867-.866-1.886-.85-2.924h3.304c.027.488.19.959.473 1.358.295.362.679.641 1.114.812.51.179 1.046.268 1.586.264.52.014 1.04-.07 1.53-.245.383-.152.726-.391 1-.698.224-.3.343-.665.34-1.038.02-.339-.096-.671-.32-.925-.255-.279-.572-.492-.926-.622-.483-.206-.982-.37-1.492-.49l-1.775-.435c-1.189-.249-2.298-.786-3.23-1.566-.801-.725-1.237-1.77-1.189-2.849-.019-.918.26-1.818.793-2.566.564-.758 1.32-1.35 2.19-1.717.995-.431 2.07-.644 3.154-.623 1.085-.025 2.161.187 3.154.623.85.367 1.581.962 2.115 1.717.5.756.77 1.64.774 2.547h-3.304zM226.605 58.49c.045 1.563-.299 3.113-1.001 4.51-.619 1.182-1.562 2.164-2.72 2.83-2.42 1.309-5.34 1.309-7.76 0-1.148-.672-2.084-1.652-2.701-2.83-1.335-2.858-1.335-6.16 0-9.019.612-1.181 1.549-2.163 2.7-2.83 2.422-1.308 5.34-1.308 7.762 0 1.152.672 2.094 1.652 2.719 2.83.699 1.399 1.042 2.947 1 4.51zm-3.475 0c.03-.986-.143-1.97-.51-2.886-.296-.723-.794-1.346-1.435-1.793-.974-.66-2.196-.841-3.32-.493-1.125.35-2.03 1.19-2.458 2.286-.68 1.864-.68 3.909 0 5.773.466 1.063 1.37 1.87 2.48 2.215 1.108.344 2.312.19 3.298-.422.646-.442 1.145-1.066 1.435-1.793.347-.92.502-1.903.453-2.886h.057zM229.078 66.509L229.078 50.321 239.823 50.321 239.823 53.151 232.515 53.151 232.515 56.925 239.106 56.925 239.106 59.755 232.515 59.755 232.515 66.434zM241.485 53.151L241.485 50.321 254.798 50.321 254.798 53.151 249.832 53.151 249.832 66.509 246.451 66.509 246.451 53.151zM260.595 66.509L255.95 50.321 259.727 50.321 262.408 61.642 262.559 61.642 265.505 50.321 268.715 50.321 271.661 61.642 271.926 61.642 274.607 50.321 278.384 50.321 273.738 66.509 270.415 66.509 267.318 55.925 267.205 55.925 264.127 66.509zM281.235 66.51h-3.776l5.665-16.19h4.418l5.666 16.19h-3.72l-4.06-12.491h-.133l-4.06 12.49zm-.245-6.36h8.686v2.661h-8.686v-2.66zM295.096 66.51V50.32h6.401c1.084-.036 2.16.19 3.135.661.84.41 1.532 1.07 1.983 1.887.463.857.697 1.819.68 2.792.03.972-.212 1.932-.699 2.774-.471.78-1.17 1.4-2.002 1.774-1.006.436-2.095.649-3.19.622h-4.288V58.02h3.777c.553.012 1.104-.077 1.624-.264.405-.153.745-.439.963-.812.234-.406.346-.871.321-1.34.02-.473-.091-.943-.32-1.358-.223-.374-.561-.665-.964-.83-.518-.222-1.08-.325-1.643-.302h-2.303V66.51h-3.475zm8.762-7.36l4.022 7.36h-3.777l-3.852-7.36h3.607zM309.693 66.509L309.693 50.321 320.608 50.321 320.608 53.151 313.054 53.151 313.054 56.925 319.985 56.925 319.985 59.755 313.054 59.755 313.054 63.528 320.608 63.528 320.608 66.34zM328.577 66.509L328.577 50.321 331.995 50.321 331.995 57 338.963 57 338.963 50.321 342.381 50.321 342.381 66.509 338.963 66.509 338.963 59.83 331.995 59.83 331.995 66.509zM360.056 58.49c.045 1.563-.298 3.113-1 4.51-.609 1.19-1.555 2.175-2.72 2.83-2.415 1.309-5.328 1.309-7.743 0-1.157-.666-2.1-1.648-2.719-2.83-1.335-2.858-1.335-6.16 0-9.019.614-1.186 1.558-2.17 2.72-2.83 2.414-1.309 5.327-1.309 7.742 0 1.161.66 2.106 1.644 2.72 2.83.698 1.399 1.042 2.947 1 4.51zm-3.475 0c.03-.986-.143-1.97-.51-2.886-.466-1.063-1.37-1.87-2.48-2.215-1.108-.344-2.312-.19-3.298.422-.641.447-1.14 1.07-1.435 1.793-.68 1.864-.68 3.909 0 5.773.29.727.79 1.35 1.435 1.793.974.66 2.196.842 3.32.493 1.125-.349 2.03-1.19 2.458-2.286.367-.917.54-1.9.51-2.886zM372.595 50.32h3.437v10.51c.025 1.098-.27 2.18-.85 3.113-.573.908-1.391 1.634-2.36 2.095-1.1.511-2.301.763-3.513.736-1.218.027-2.426-.225-3.531-.736-.965-.45-1.783-1.163-2.36-2.057-.566-.939-.854-2.018-.832-3.113V50.32h3.418v10.226c-.04.592.077 1.185.34 1.717.274.475.672.866 1.152 1.132 1.09.564 2.385.564 3.475 0 .476-.27.873-.66 1.152-1.132.27-.504.406-1.07.396-1.641l.076-10.302zM387.626 54.981c-.019-.597-.32-1.15-.812-1.49-.558-.371-1.219-.556-1.888-.529-.482-.015-.963.062-1.417.227-.345.134-.65.355-.887.641-.203.272-.31.604-.302.944-.02.265.047.53.189.754.14.225.327.418.547.566.262.162.54.295.831.397.326.119.66.213 1.001.283l1.454.358c.648.146 1.28.354 1.888.623.56.242 1.076.574 1.53.98.432.372.774.837 1 1.36.258.561.387 1.174.379 1.792.018.912-.246 1.809-.756 2.566-.532.768-1.281 1.36-2.153 1.698-2.196.792-4.601.792-6.798 0-.914-.355-1.702-.972-2.266-1.774-.552-.875-.847-1.889-.85-2.924h3.324c.018.49.182.963.472 1.358.288.37.674.651 1.114.812.509.182 1.046.272 1.586.264.515.012 1.027-.071 1.511-.245.387-.147.73-.387 1.001-.699.237-.293.364-.66.359-1.037.01-.337-.105-.666-.321-.925-.261-.28-.585-.493-.944-.623-.482-.208-.981-.372-1.492-.49l-1.756-.434c-1.196-.245-2.312-.783-3.248-1.566-.804-.722-1.235-1.77-1.171-2.85-.035-.917.238-1.82.774-2.565.564-.758 1.32-1.35 2.19-1.717 1.002-.43 2.083-.643 3.173-.623 1.084-.02 2.16.192 3.154.623.847.363 1.574.958 2.096 1.717.508.752.778 1.64.774 2.547l-3.286-.019zM393.423 66.509L393.423 50.321 404.357 50.321 404.357 53.151 396.804 53.151 396.804 56.925 403.734 56.925 403.734 59.755 396.804 59.755 396.804 63.528 404.357 63.528 404.357 66.34z" transform="translate(-1501 -394) translate(1501 394)"/>
            </g>
        </g>
    </g>
</svg>
